<?xml version="1.0" standalone="no"?>
<!DOCTYPE svg PUBLIC "-//W3C//DTD SVG 20010904//EN"
 "http://www.w3.org/TR/2001/REC-SVG-20010904/DTD/svg10.dtd">
<svg version="1.0" xmlns="http://www.w3.org/2000/svg"
 width="512.000000pt" height="512.000000pt" viewBox="0 0 512.000000 512.000000"
 preserveAspectRatio="xMidYMid meet">
<metadata>
Created by potrace 1.14, written by Peter Selinger 2001-2017
</metadata>
<g transform="translate(0.000000,512.000000) scale(0.100000,-0.100000)"
fill="#000000" stroke="none">
<path d="M340 5094 c-30 -8 -75 -24 -100 -36 -60 -29 -160 -131 -189 -193 -48
-102 -50 -125 -51 -552 l0 -403 2560 0 2560 0 0 403 c-1 221 -5 421 -10 444
-33 143 -138 264 -284 326 l-51 22 -2190 2 c-1906 2 -2197 0 -2245 -13z m484
-599 c154 -73 79 -306 -89 -281 -112 17 -164 160 -87 243 49 53 115 67 176 38z
m600 0 c66 -32 99 -109 76 -179 -35 -108 -167 -140 -245 -59 -114 118 21 308
169 238z m607 -7 c49 -27 68 -55 75 -111 13 -93 -67 -175 -160 -163 -22 3 -44
5 -47 5 -17 2 -60 50 -74 83 -19 46 -19 76 -1 119 34 80 129 111 207 67z
m2404 -3 c44 -25 75 -74 75 -118 0 -34 -20 -89 -40 -108 -50 -49 -48 -49 -560
-49 -462 0 -482 1 -520 20 -102 52 -104 196 -4 256 l39 24 484 0 484 0 42 -25z"/>
<path d="M0 2003 c0 -1325 3 -1616 14 -1653 27 -88 61 -146 121 -205 68 -67
145 -110 225 -125 34 -6 807 -10 2209 -10 2266 0 2193 -1 2286 42 123 56 209
158 251 298 11 37 14 328 14 1653 l0 1607 -2560 0 -2560 0 0 -1607z m3080
1137 c68 -35 98 -122 66 -193 -8 -18 -33 -77 -56 -132 -23 -55 -50 -118 -60
-140 -10 -22 -37 -85 -60 -140 -23 -55 -51 -118 -60 -140 -10 -22 -91 -211
-180 -420 -89 -209 -170 -398 -180 -420 -10 -22 -57 -132 -105 -245 -48 -113
-96 -225 -107 -250 -23 -52 -47 -106 -73 -170 -29 -70 -51 -96 -95 -114 -53
-21 -83 -20 -128 3 -52 27 -86 90 -79 145 5 34 60 172 131 331 8 17 87 201
176 410 89 209 171 398 181 420 10 22 30 69 44 105 15 36 35 83 45 105 10 22
30 69 45 105 15 36 35 83 45 105 10 22 43 101 75 175 64 153 71 168 114 263
17 38 31 72 31 77 0 5 11 29 24 52 43 78 130 107 206 68z m-1334 -456 c30 -20
64 -83 64 -119 0 -33 -23 -88 -47 -112 -10 -10 -152 -125 -316 -256 -291 -233
-298 -239 -277 -254 12 -9 151 -119 309 -244 295 -236 331 -272 331 -337 0
-54 -35 -111 -83 -133 -82 -37 -113 -26 -256 90 -51 42 -105 85 -120 96 -89
66 -531 424 -553 448 -37 40 -46 105 -23 157 15 32 42 60 110 112 6 4 25 20
44 35 456 367 668 533 685 537 36 8 105 -3 132 -20z m1765 17 c19 -7 227 -169
484 -376 61 -49 90 -72 194 -155 58 -46 118 -97 133 -113 46 -50 49 -137 5
-189 -29 -35 -763 -620 -804 -641 -42 -22 -78 -21 -131 3 -79 36 -106 155 -49
221 12 15 60 57 107 94 47 37 94 75 105 84 11 9 109 87 218 174 l199 159 -42
31 c-23 18 -161 128 -308 245 -277 220 -312 257 -312 324 0 43 35 103 72 125
37 22 93 28 129 14z"/>
</g>
</svg>
